<?xml version="1.0" standalone="no"?>
<!DOCTYPE svg PUBLIC "-//W3C//DTD SVG 20010904//EN"
 "http://www.w3.org/TR/2001/REC-SVG-20010904/DTD/svg10.dtd">
<svg version="1.0" xmlns="http://www.w3.org/2000/svg"
 width="225.000000pt" height="225.000000pt" viewBox="0 0 225.000000 225.000000"
 preserveAspectRatio="xMidYMid meet">

<g transform="translate(0.000000,225.000000) scale(0.100000,-0.100000)"
fill="#000000" stroke="none">
<path d="M42 1057 l3 -873 28 -42 c15 -23 46 -54 69 -69 l42 -28 941 0 941 0
42 28 c23 15 54 46 69 69 l28 42 2 780 c1 451 -2 773 -7 761 -7 -15 -9 -8 -11
30 l-2 50 -7 -45 c-5 -30 -7 -36 -8 -17 l-2 27 -125 0 c-77 0 -125 4 -125 10
0 6 -18 10 -39 10 -22 0 -43 5 -46 11 -10 15 -36 -39 -38 -78 -1 -17 -6 -31
-10 -30 -8 2 -13 -9 -60 -138 -15 -38 -36 -95 -47 -125 -12 -30 -38 -99 -57
-152 l-36 -98 -111 0 -111 0 -118 318 c-65 174 -126 334 -136 355 l-18 39 -6
-32 c-6 -28 -8 -30 -22 -17 -8 9 -16 28 -16 44 -2 23 -2 24 -6 6 -5 -24 -18
-30 -28 -13 -3 6 -1 10 6 10 7 0 4 7 -7 15 -10 8 -23 14 -29 14 -5 0 -1 -5 10
-11 19 -11 19 -11 0 -18 -17 -6 -15 -10 18 -23 l37 -16 0 -80 0 -80 -61 32
c-46 24 -78 32 -128 35 -73 4 -149 -18 -135 -39 4 -7 3 -9 -4 -5 -14 8 -50
-29 -67 -69 -34 -80 -26 -197 18 -263 12 -18 45 -44 75 -59 79 -39 160 -29
285 35 4 2 7 -30 7 -72 l0 -75 -70 -22 c-95 -28 -249 -24 -325 10 -144 64
-215 194 -202 371 11 163 107 286 247 316 40 9 47 13 24 13 -39 1 -124 -28
-124 -42 0 -7 -4 -7 -12 1 -7 7 -32 13 -57 14 l-46 1 43 4 c23 2 42 8 42 12 0
12 -108 21 -261 21 -86 0 -139 4 -139 10 0 6 -20 10 -44 10 -34 0 -46 -4 -49
-17 -4 -17 -5 -17 -6 0 0 9 -6 17 -11 17 -7 0 -9 -287 -8 -873z m518 783 c-8
-5 -19 -10 -25 -10 -5 0 -3 5 5 10 8 5 20 10 25 10 6 0 3 -5 -5 -10z m547 -22
c-3 -7 -5 -2 -5 12 0 14 2 19 5 13 2 -7 2 -19 0 -25z m-117 -108 c8 -5 11 -10
5 -10 -5 0 -17 5 -25 10 -8 5 -10 10 -5 10 6 0 17 -5 25 -10z m10 -780 c0 -21
-15 -27 -25 -10 -7 12 2 30 16 30 5 0 9 -9 9 -20z m420 -90 c0 -91 -3 -110
-15 -110 -12 0 -15 19 -15 110 0 91 3 110 15 110 12 0 15 -19 15 -110z m-905
84 c22 -23 11 -29 -24 -14 -32 13 -62 7 -86 -16 -21 -21 -20 -102 2 -126 18
-20 82 -25 100 -7 7 7 13 7 17 1 8 -14 -33 -42 -61 -42 -66 0 -105 43 -105
117 0 41 5 52 31 75 37 33 99 38 126 12z m75 -81 c0 -76 8 -93 41 -93 32 0 37
11 41 89 2 25 9 46 16 49 9 3 12 -17 12 -77 0 -74 -10 -106 -25 -81 -4 7 -12
7 -25 0 -54 -29 -80 0 -80 91 0 39 4 69 10 69 6 0 10 -21 10 -47z m200 37 c23
15 50 12 50 -5 0 -9 -9 -15 -25 -15 -30 0 -45 -30 -45 -91 0 -21 -4 -39 -10
-39 -6 0 -10 31 -10 73 0 71 7 98 20 78 3 -6 11 -6 20 -1z m96 -1 c4 -8 9 -8
17 0 16 16 47 13 47 -4 0 -9 -9 -15 -24 -15 -29 0 -36 -16 -36 -81 0 -37 -4
-49 -15 -49 -12 0 -15 16 -15 80 0 74 9 97 26 69z m114 -75 c0 -59 -3 -74 -15
-74 -12 0 -15 15 -15 73 0 41 3 77 6 80 16 16 24 -10 24 -79z m154 80 c29 -11
16 -24 -24 -24 -34 0 -42 -4 -52 -25 -8 -18 -9 -35 -2 -53 8 -23 16 -27 52
-30 46 -3 56 -18 18 -28 -26 -6 -63 2 -83 18 -33 26 -19 126 19 141 19 8 54 8
72 1z m186 -64 c3 -90 2 -92 -19 -85 -11 3 -22 1 -26 -5 -10 -15 -46 -12 -67
7 -24 21 -27 143 -3 143 10 0 15 -16 17 -62 3 -60 4 -63 30 -66 23 -3 30 2 39
25 6 15 8 40 5 55 -6 32 3 63 15 51 4 -4 8 -33 9 -63z m162 -3 c3 -62 3 -62
33 -62 30 0 30 1 35 64 3 39 10 66 18 69 9 3 12 -17 12 -78 0 -77 -1 -82 -20
-77 -11 3 -23 1 -26 -4 -9 -15 -46 -10 -66 8 -24 21 -27 156 -3 147 10 -4 15
-25 17 -67z m172 64 c4 -5 18 -5 36 2 24 9 32 8 48 -6 17 -16 21 -16 32 -2 17
21 53 19 74 -4 13 -14 16 -33 14 -82 -4 -82 -21 -79 -28 3 -4 54 -8 63 -26 66
-30 4 -42 -16 -46 -78 -4 -66 -22 -73 -26 -10 -4 75 -10 90 -36 90 -29 0 -36
-16 -36 -81 0 -37 -4 -49 -15 -49 -12 0 -15 16 -15 80 0 72 9 97 24 71z m-637
-286 c0 -8 -9 -15 -19 -15 -10 0 -18 7 -18 15 0 8 8 15 18 15 10 0 19 -7 19
-15z m-183 -75 c25 -71 46 -102 46 -67 0 25 56 147 68 147 17 0 17 -1 -25
-112 -47 -126 -60 -129 -102 -17 -42 109 -46 129 -29 129 8 0 25 -33 42 -80z
m287 30 c16 0 29 -4 29 -10 0 -5 -14 -10 -31 -10 -30 0 -30 0 -27 -52 3 -45 6
-53 26 -58 30 -7 29 -24 -2 -28 -34 -4 -56 31 -56 89 0 28 -5 50 -12 53 -10 5
-10 7 0 12 6 3 12 14 12 24 0 28 24 31 28 3 3 -18 9 -23 33 -23z m137 -1 c34
-12 42 -31 42 -106 0 -41 -4 -53 -15 -53 -8 0 -15 5 -15 12 0 9 -3 9 -12 0
-21 -21 -66 -14 -84 13 -15 23 -15 27 0 50 15 22 49 32 89 26 12 -2 8 16 -8
29 -9 7 -27 10 -45 6 -22 -4 -30 -2 -30 9 0 11 11 18 41 24 3 0 20 -4 37 -10z
m207 -14 c14 -13 25 -36 25 -50 0 -24 -2 -25 -60 -25 -64 0 -72 -6 -40 -35 15
-13 28 -16 56 -11 27 6 35 4 32 -6 -3 -8 -24 -14 -50 -16 -40 -3 -49 1 -67 24
-46 59 -9 139 67 143 7 1 24 -10 37 -24z m-453 -66 c-4 -80 -5 -84 -21 -74
-12 7 -15 137 -4 149 19 19 28 -6 25 -75z"/>
<path d="M1222 458 c-14 -14 2 -48 23 -48 18 0 45 27 45 46 0 17 -51 19 -68 2z"/>
<path d="M1400 510 c-10 -19 -8 -20 35 -20 43 0 45 1 35 20 -6 12 -21 20 -35
20 -14 0 -29 -8 -35 -20z"/>
<path d="M698 1923 c7 -3 16 -2 19 1 4 3 -2 6 -13 5 -11 0 -14 -3 -6 -6z"/>
<path d="M610 1910 c0 -5 -7 -10 -15 -10 -8 0 -15 -4 -15 -10 0 -16 15 -12 40
10 18 16 20 20 7 20 -10 0 -17 -4 -17 -10z"/>
<path d="M1280 1911 c0 -9 -22 -12 -84 -9 -46 2 -82 0 -79 -4 7 -12 161 -9
168 3 4 6 4 13 1 16 -3 4 -6 1 -6 -6z"/>
<path d="M763 1903 c9 -2 23 -2 30 0 6 3 -1 5 -18 5 -16 0 -22 -2 -12 -5z"/>
<path d="M838 1903 c12 -2 32 -2 45 0 12 2 2 4 -23 4 -25 0 -35 -2 -22 -4z"/>
<path d="M918 1893 c6 -2 18 -2 25 0 6 3 1 5 -13 5 -14 0 -19 -2 -12 -5z"/>
<path d="M1300 1884 c0 -6 3 -14 7 -17 3 -4 7 -17 9 -30 1 -12 9 -38 17 -57
l15 -35 -2 38 c-1 21 -9 42 -16 47 -11 7 -10 14 5 37 13 19 14 24 4 16 -12
-10 -18 -10 -27 -1 -7 7 -12 8 -12 2z"/>
<path d="M1065 1870 c3 -5 8 -10 11 -10 2 0 4 5 4 10 0 6 -5 10 -11 10 -5 0
-7 -4 -4 -10z"/>
<path d="M1635 1870 c-3 -5 -1 -10 4 -10 6 0 11 5 11 10 0 6 -2 10 -4 10 -3 0
-8 -4 -11 -10z"/>
<path d="M1343 1847 c-2 -4 1 -14 7 -23 8 -9 10 -30 7 -57 -3 -23 -1 -56 5
-74 11 -29 13 -30 25 -15 13 15 13 14 3 -5 -8 -18 -2 -47 37 -158 25 -74 50
-132 53 -128 6 7 99 270 105 298 1 5 5 17 8 25 21 49 45 130 37 125 -6 -4 -10
-14 -11 -23 0 -11 -3 -12 -6 -4 -3 8 -31 12 -89 12 -65 0 -84 3 -84 14 0 15
-88 27 -97 13z m240 -54 c-13 -2 -33 -2 -45 0 -13 2 -3 4 22 4 25 0 35 -2 23
-4z m-28 -73 c3 -5 1 -10 -4 -10 -6 0 -11 5 -11 10 0 6 2 10 4 10 3 0 8 -4 11
-10z"/>
<path d="M1835 1849 c-4 -6 -5 -12 -2 -15 2 -3 7 2 10 11 7 17 1 20 -8 4z"/>
</g>
</svg>
