<?xml version="1.0" standalone="no"?>
<!DOCTYPE svg PUBLIC "-//W3C//DTD SVG 20010904//EN"
 "http://www.w3.org/TR/2001/REC-SVG-20010904/DTD/svg10.dtd">
<svg version="1.0" xmlns="http://www.w3.org/2000/svg"
 width="225.000000pt" height="225.000000pt" viewBox="0 0 225.000000 225.000000"
 preserveAspectRatio="xMidYMid meet">
<metadata>
Created by potrace 1.15, written by Peter Selinger 2001-2017
</metadata>
<g transform="translate(0.000000,225.000000) scale(0.100000,-0.100000)"
fill="#000000" stroke="none">
<path d="M50 2237 c-41 -21 -50 -52 -50 -179 0 -111 1 -118 26 -147 l26 -31
444 0 444 0 0 -900 c0 -978 -2 -942 55 -968 14 -7 70 -12 126 -12 113 0 159
15 178 56 8 18 11 273 11 924 l0 900 444 0 444 0 26 31 c25 29 26 36 26 145 0
127 -12 168 -56 184 -41 16 -2113 13 -2144 -3z"/>
<path d="M435 1680 c-51 -20 -50 2 -55 -674 l-5 -631 -162 -3 -162 -2 -26 -32
c-26 -31 -26 -33 -23 -159 5 -189 -28 -174 373 -174 324 0 324 0 347 23 l23
23 3 777 c2 583 -1 784 -10 806 -17 43 -61 56 -180 55 -57 0 -112 -4 -123 -9z"/>
<path d="M1554 1676 c-17 -7 -36 -27 -42 -42 -9 -22 -12 -223 -10 -806 l3
-777 23 -23 c22 -23 25 -23 329 -26 219 -2 315 1 335 9 49 20 60 56 56 189 -3
109 -5 121 -27 144 -24 25 -27 26 -185 28 l-161 3 -5 632 -5 632 -23 23 c-20
21 -33 23 -140 26 -83 1 -126 -2 -148 -12z"/>
</g>
</svg>
